<svg width="32.000000" height="32.000000" viewBox="0 0 32 32" fill="none" xmlns="http://www.w3.org/2000/svg" xmlns:xlink="http://www.w3.org/1999/xlink">
	<desc>
			Created with Pixso.
	</desc>
	<defs>
		<clipPath id="clip74_462">
			<rect id="uit:facebook-f" width="32.000000" height="32.000000" transform="translate(0.000000 -0.500000)" fill="white" fill-opacity="0"/>
		</clipPath>
	</defs>
	<rect id="uit:facebook-f" width="32.000000" height="32.000000" transform="translate(0.000000 -0.500000)" fill="#FFFFFF" fill-opacity="0"/>
	<g clip-path="url(#clip74_462)">
		<path id="Vector" d="M23.98 1.62C22.64 1.48 21.29 1.41 19.93 1.41C15.45 1.41 12.66 4.27 12.66 8.87L12.66 11.99L8.89 11.99C8.72 11.99 8.55 12.06 8.42 12.18C8.3 12.31 8.23 12.48 8.23 12.66L8.23 17.79C8.23 17.97 8.3 18.14 8.42 18.26C8.55 18.39 8.72 18.46 8.89 18.46L12.66 18.46L12.66 28.75C12.66 28.93 12.73 29.1 12.86 29.22C12.98 29.35 13.15 29.42 13.33 29.42L18.63 29.42C18.81 29.42 18.98 29.35 19.1 29.22C19.23 29.1 19.3 28.93 19.3 28.75L19.3 18.46L23.05 18.46C23.22 18.46 23.37 18.4 23.49 18.29C23.62 18.18 23.69 18.04 23.72 17.88L24.38 12.74C24.39 12.65 24.38 12.55 24.35 12.46C24.33 12.37 24.28 12.29 24.22 12.22C24.16 12.15 24.08 12.09 23.99 12.05C23.91 12.01 23.81 11.99 23.72 11.99L19.3 11.99L19.3 9.38C19.3 8.08 19.56 7.54 21.18 7.54L23.89 7.54C24.07 7.54 24.24 7.47 24.37 7.35C24.49 7.22 24.56 7.05 24.56 6.88L24.56 2.28C24.56 2.12 24.5 1.97 24.4 1.84C24.29 1.72 24.14 1.64 23.98 1.62ZM23.23 6.21L21.18 6.21C18.3 6.21 17.97 8.02 17.97 9.38L17.97 12.66C17.97 12.83 18.04 13 18.16 13.13C18.29 13.25 18.45 13.32 18.63 13.32L22.96 13.32L22.47 17.12L18.63 17.12C18.46 17.12 18.29 17.19 18.16 17.32C18.04 17.44 17.97 17.61 17.97 17.79L17.97 28.08L14 28.08L14 17.79C14 17.61 13.92 17.44 13.8 17.32C13.67 17.19 13.51 17.12 13.33 17.12L9.56 17.12L9.56 13.32L13.33 13.32C13.51 13.32 13.67 13.25 13.8 13.13C13.92 13 14 12.83 14 12.66L14 8.87C14 5.04 16.22 2.75 19.93 2.75C21.28 2.75 22.49 2.82 23.23 2.89L23.23 6.21Z" fill="#011C44" fill-opacity="1.000000" fill-rule="nonzero"/>
	</g>
</svg>
