<svg width="32.000000" height="32.000000" viewBox="0 0 32 32" fill="none" xmlns="http://www.w3.org/2000/svg" xmlns:xlink="http://www.w3.org/1999/xlink">
	<desc>
			Created with Pixso.
	</desc>
	<defs>
		<clipPath id="clip74_460">
			<rect id="ph:instagram-logo-light" width="32.000000" height="32.000000" transform="translate(0.000000 -0.500000)" fill="white" fill-opacity="0"/>
		</clipPath>
	</defs>
	<rect id="ph:instagram-logo-light" width="32.000000" height="32.000000" transform="translate(0.000000 -0.500000)" fill="#FFFFFF" fill-opacity="0"/>
	<g clip-path="url(#clip74_460)">
		<path id="Vector" d="M16 9.75C14.86 9.75 13.75 10.08 12.8 10.71C11.85 11.35 11.12 12.24 10.68 13.29C10.25 14.35 10.13 15.5 10.36 16.62C10.58 17.73 11.12 18.76 11.93 19.56C12.73 20.37 13.76 20.91 14.87 21.13C15.99 21.36 17.14 21.24 18.2 20.81C19.25 20.37 20.14 19.64 20.78 18.69C21.41 17.74 21.75 16.63 21.75 15.5C21.75 13.97 21.14 12.51 20.06 11.43C18.98 10.35 17.52 9.75 16 9.75ZM16 19.75C15.15 19.75 14.33 19.5 13.63 19.03C12.93 18.56 12.39 17.9 12.07 17.12C11.75 16.34 11.66 15.49 11.83 14.67C11.99 13.84 12.4 13.08 12.99 12.49C13.58 11.9 14.34 11.49 15.17 11.33C15.99 11.16 16.84 11.25 17.62 11.57C18.4 11.89 19.06 12.43 19.53 13.13C20 13.83 20.25 14.65 20.25 15.5C20.24 16.62 19.79 17.7 19 18.5C18.2 19.29 17.12 19.74 16 19.75ZM21.5 3.25L10.5 3.25C8.7 3.25 6.99 3.96 5.72 5.22C4.46 6.49 3.75 8.2 3.75 10L3.75 21C3.75 22.79 4.46 24.5 5.72 25.77C6.99 27.03 8.7 27.75 10.5 27.75L21.5 27.75C23.29 27.75 25 27.03 26.27 25.77C27.53 24.5 28.25 22.79 28.25 21L28.25 10C28.25 8.2 27.53 6.49 26.27 5.22C25 3.96 23.29 3.25 21.5 3.25ZM26.75 21C26.75 22.39 26.19 23.72 25.21 24.71C24.22 25.69 22.89 26.25 21.5 26.25L10.5 26.25C9.1 26.25 7.77 25.69 6.78 24.71C5.8 23.72 5.25 22.39 5.25 21L5.25 10C5.25 8.6 5.8 7.27 6.78 6.28C7.77 5.3 9.1 4.75 10.5 4.75L21.5 4.75C22.89 4.75 24.22 5.3 25.21 6.28C26.19 7.27 26.75 8.6 26.75 10L26.75 21ZM23.75 9C23.75 9.24 23.67 9.48 23.53 9.69C23.4 9.89 23.2 10.06 22.97 10.15C22.75 10.24 22.49 10.27 22.25 10.22C22.01 10.17 21.79 10.05 21.61 9.88C21.44 9.7 21.32 9.48 21.27 9.24C21.22 9 21.25 8.75 21.34 8.52C21.43 8.29 21.6 8.09 21.8 7.96C22.01 7.82 22.25 7.75 22.5 7.75C22.83 7.75 23.14 7.88 23.38 8.11C23.61 8.35 23.75 8.66 23.75 9Z" fill="#011C44" fill-opacity="1.000000" fill-rule="nonzero"/>
	</g>
</svg>
