<svg width="27.000000" height="30.000000" viewBox="0 0 27 30" fill="none" xmlns="http://www.w3.org/2000/svg" xmlns:xlink="http://www.w3.org/1999/xlink">
	<desc>
			Created with Pixso.
	</desc>
	<defs/>
	<path id="Vector" d="M24.65 21.45L24.48 21.24C23.1 19.5 21.96 18.6 20.97 18.48C20.12 18.36 19.3 18.95 18.43 19.56L17.49 20.14C17.38 20.2 17.27 20.24 17.16 20.27C16.62 20.43 15.24 20.52 14.46 19.8C13.55 18.97 12.14 17.45 11.04 16.12C9.99 14.74 8.84 13.02 8.24 11.94C7.73 11.03 8.15 9.75 8.44 9.27C8.49 9.18 8.57 9.09 8.65 9L9.47 8.23C9.49 8.22 9.49 8.21 9.5 8.2C9.51 8.19 9.52 8.19 9.53 8.18C10.28 7.56 11.05 6.91 11.15 6.08C11.27 5.1 10.67 3.78 9.29 2.05L9.13 1.83C8.27 0.74 6.99 -0.91 5.14 -0.63C4.41 -0.53 3.76 -0.28 3.09 0.14C3.09 0.15 3.08 0.15 3.08 0.16C3.07 0.16 3.07 0.16 3.06 0.17L2.13 0.86C2.12 0.86 2.11 0.87 2.11 0.88C2.1 0.89 2.09 0.89 2.08 0.9C1.97 0.99 1.86 1.08 1.76 1.18C0.81 2.02 -1.23 4.47 0.16 8.99C1.06 11.91 2.92 15.32 5.55 18.87L5.52 18.89L6.97 20.7L6.99 20.69C9.83 24.06 12.73 26.67 15.39 28.24C17.17 29.3 18.71 29.65 19.99 29.65C21.67 29.65 22.87 29.04 23.47 28.65L23.85 28.4C23.89 28.37 23.92 28.33 23.95 28.29L24.78 27.67C24.79 27.66 24.79 27.65 24.8 27.64C24.81 27.64 24.81 27.64 24.82 27.64C25.41 27.1 25.81 26.54 26.09 25.87C26.83 24.17 25.52 22.53 24.65 21.45ZM25.11 25.45C24.89 25.97 24.57 26.41 24.11 26.84L22.88 27.76C21.77 28.48 19.39 29.38 15.94 27.33C13.28 25.75 10.36 23.08 7.48 19.62L6.7 18.63C3.99 15.04 2.08 11.59 1.18 8.68C0.01 4.88 1.49 2.85 2.47 1.97C2.57 1.88 2.67 1.79 2.77 1.71L2.77 1.71L3.67 1.04C4.21 0.7 4.72 0.51 5.3 0.42C6.54 0.23 7.54 1.54 8.28 2.49L8.46 2.71C9.99 4.65 10.14 5.57 10.09 5.94C10.04 6.36 9.41 6.9 8.85 7.37L8.77 7.43C8.76 7.44 8.76 7.44 8.76 7.44C8.76 7.45 8.75 7.45 8.75 7.45L7.9 8.24C7.89 8.24 7.89 8.25 7.88 8.26C7.88 8.26 7.87 8.27 7.86 8.27C7.73 8.42 7.62 8.57 7.52 8.72C7.05 9.52 6.59 11.18 7.31 12.46C7.93 13.58 9.11 15.35 10.2 16.78C11.34 18.16 12.79 19.73 13.74 20.59C14.44 21.23 15.42 21.45 16.27 21.45C16.73 21.45 17.14 21.39 17.46 21.3C17.63 21.25 17.8 21.18 17.98 21.09C17.99 21.09 17.99 21.08 18 21.07C18.01 21.07 18.02 21.07 18.02 21.07L19.01 20.45C19.04 20.43 19.06 20.4 19.09 20.37L19.1 20.38C19.71 19.96 20.41 19.47 20.84 19.54C21.23 19.58 22.1 19.95 23.64 21.9L23.82 22.12C24.57 23.06 25.59 24.33 25.11 25.45Z" fill="#011C44" fill-opacity="1.000000" fill-rule="nonzero"/>
</svg>
