<svg width="48.000000" height="48.000000" viewBox="0 0 48 48" fill="none" xmlns="http://www.w3.org/2000/svg" xmlns:xlink="http://www.w3.org/1999/xlink">
	<desc>
			Created with Pixso.
	</desc>
	<defs>
		<clipPath id="clip64_155">
			<rect id="game-icons:materials-science" width="48.000000" height="48.000000" fill="white" fill-opacity="0"/>
		</clipPath>
	</defs>
	<rect id="game-icons:materials-science" width="48.000000" height="48.000000" fill="#FFFFFF" fill-opacity="0"/>
	<g clip-path="url(#clip64_155)">
		<path id="Vector" d="M24.09 2.09C22.51 2.09 21.04 2.81 19.79 3.99C18.53 5.16 17.46 6.8 16.57 8.78C16.38 9.19 16.2 9.63 16.03 10.07C15.57 10 15.1 9.94 14.64 9.89C14.1 9.84 13.57 9.8 13.06 9.79C11.52 9.75 10.11 9.91 8.88 10.28C7.23 10.78 5.88 11.7 5.09 13.06C4.3 14.43 4.19 16.06 4.58 17.73C4.97 19.4 5.85 21.15 7.12 22.92C7.38 23.29 7.67 23.66 7.97 24.03C7.67 24.39 7.39 24.76 7.12 25.14C5.85 26.91 4.97 28.65 4.58 30.33C4.19 32 4.3 33.63 5.09 35C5.88 36.36 7.23 37.28 8.88 37.78C10.52 38.27 12.48 38.39 14.64 38.17C15.09 38.12 15.56 38.06 16.03 37.99C16.19 38.43 16.37 38.86 16.57 39.28C17.46 41.26 18.53 42.9 19.79 44.08C21.04 45.25 22.51 45.97 24.09 45.97C25.66 45.97 27.13 45.25 28.39 44.08C29.64 42.9 30.71 41.26 31.61 39.28C31.8 38.86 31.98 38.43 32.15 37.99C32.62 38.06 33.08 38.12 33.53 38.17C35.7 38.39 37.65 38.27 39.29 37.78C40.94 37.28 42.3 36.36 43.08 35C43.87 33.63 43.98 32 43.59 30.33C43.2 28.66 42.32 26.91 41.06 25.14C40.78 24.76 40.5 24.39 40.21 24.03C40.5 23.67 40.78 23.3 41.06 22.92C42.32 21.15 43.21 19.4 43.6 17.73C43.99 16.06 43.87 14.43 43.08 13.06C42.3 11.7 40.94 10.78 39.3 10.28C38.06 9.91 36.66 9.75 35.12 9.79C34.6 9.8 34.08 9.84 33.53 9.89C33.08 9.93 32.62 10 32.15 10.07C31.98 9.63 31.8 9.2 31.61 8.78C30.71 6.8 29.64 5.16 28.39 3.99C27.13 2.81 25.66 2.09 24.09 2.09L24.09 2.09ZM24.09 3.85C25.14 3.85 26.17 4.31 27.19 5.27C28.21 6.22 29.18 7.67 30.01 9.5C30.15 9.8 30.27 10.1 30.39 10.4C28.39 10.85 26.26 11.53 24.09 12.45C21.91 11.54 19.79 10.85 17.78 10.4C17.9 10.09 18.03 9.79 18.16 9.5C18.99 7.67 19.96 6.22 20.98 5.26C22.01 4.31 23.04 3.85 24.09 3.85L24.09 3.85ZM12.5 11.54C12.67 11.54 12.84 11.54 13.02 11.54C13.48 11.55 13.96 11.58 14.46 11.63C14.78 11.66 15.11 11.71 15.44 11.75C14.82 13.72 14.35 15.9 14.06 18.24C12.18 19.66 10.52 21.16 9.13 22.68C8.93 22.42 8.73 22.16 8.54 21.89C7.37 20.26 6.6 18.7 6.28 17.33C5.96 15.97 6.08 14.85 6.61 13.94C7.13 13.03 8.05 12.37 9.38 11.96C10.26 11.69 11.32 11.55 12.5 11.54L12.5 11.54ZM35.67 11.54C36.86 11.55 37.91 11.69 38.79 11.96C40.13 12.37 41.04 13.03 41.57 13.94C42.09 14.85 42.21 15.97 41.89 17.33C41.57 18.7 40.8 20.26 39.63 21.89C39.44 22.16 39.24 22.42 39.04 22.68C37.65 21.16 35.99 19.67 34.12 18.24C33.82 15.9 33.35 13.72 32.73 11.75C33.06 11.71 33.39 11.66 33.71 11.63C34.19 11.58 34.67 11.55 35.16 11.54C35.33 11.54 35.5 11.54 35.67 11.54L35.67 11.54ZM30.99 12.07C31.46 13.52 31.84 15.11 32.13 16.82C31.2 16.19 30.25 15.6 29.28 15.04C28.31 14.48 27.31 13.95 26.31 13.46C27.93 12.85 29.51 12.39 30.99 12.07L30.99 12.07ZM17.18 12.07C18.67 12.39 20.24 12.85 21.87 13.46C20.86 13.95 19.87 14.48 18.89 15.04C17.92 15.6 16.97 16.19 16.04 16.82C16.33 15.11 16.72 13.52 17.18 12.07ZM24.09 14.36C25.51 14.99 26.96 15.72 28.4 16.55C29.84 17.39 31.2 18.28 32.46 19.2C32.63 20.75 32.72 22.36 32.72 24.03C32.72 25.7 32.63 27.31 32.46 28.86C31.2 29.78 29.85 30.67 28.4 31.5C26.96 32.34 25.51 33.07 24.09 33.7C22.66 33.07 21.21 32.34 19.77 31.5C18.33 30.67 16.97 29.78 15.71 28.86C15.55 27.32 15.46 25.7 15.46 24.03C15.46 22.36 15.55 20.75 15.71 19.2C16.97 18.28 18.33 17.39 19.77 16.55C21.21 15.72 22.66 14.99 24.09 14.36L24.09 14.36ZM24.2 17L19.19 20.09L24.2 23.19L29.22 20.09L24.2 17L24.2 17ZM13.82 20.67C13.74 21.79 13.7 22.91 13.7 24.03C13.7 25.17 13.74 26.3 13.82 27.39C12.49 26.29 11.29 25.16 10.27 24.03C11.29 22.9 12.48 21.77 13.82 20.67ZM34.35 20.67C35.69 21.77 36.88 22.9 37.9 24.03C36.88 25.16 35.69 26.29 34.35 27.39C34.43 26.27 34.47 25.15 34.47 24.03C34.47 22.89 34.43 21.76 34.35 20.67L34.35 20.67ZM18.06 21.45L18.06 27.57L23.33 30.82L23.33 24.71L18.06 21.45ZM30.35 21.46L25.08 24.71L25.08 30.82L30.35 27.57L30.35 21.46L30.35 21.46ZM9.13 25.38C10.52 26.9 12.18 28.39 14.06 29.82C14.35 32.16 14.82 34.34 15.44 36.31C15.11 36.35 14.78 36.39 14.46 36.43C12.47 36.63 10.73 36.5 9.39 36.1C8.05 35.69 7.13 35.03 6.61 34.12C6.08 33.21 5.97 32.09 6.28 30.73C6.6 29.36 7.37 27.79 8.54 26.16C8.73 25.9 8.93 25.64 9.13 25.38ZM39.04 25.38C39.25 25.64 39.45 25.9 39.63 26.16C40.8 27.79 41.57 29.36 41.89 30.73C42.21 32.09 42.09 33.21 41.57 34.12C41.04 35.03 40.13 35.69 38.79 36.1C37.45 36.5 35.71 36.62 33.71 36.43C33.38 36.39 33.06 36.35 32.73 36.31C33.35 34.34 33.82 32.16 34.12 29.82C35.99 28.39 37.65 26.9 39.04 25.38L39.04 25.38ZM32.13 31.24C31.84 32.95 31.46 34.54 30.99 35.99C29.51 35.67 27.93 35.21 26.31 34.6C27.32 34.11 28.31 33.58 29.28 33.02C30.25 32.46 31.2 31.87 32.13 31.24L32.13 31.24ZM16.04 31.24C16.97 31.87 17.92 32.46 18.89 33.02C19.87 33.58 20.86 34.11 21.87 34.6C20.24 35.21 18.67 35.67 17.18 35.99C16.71 34.54 16.33 32.95 16.04 31.24ZM24.14 31.32L24.2 31.36L24.27 31.32L24.14 31.32L24.14 31.32ZM24.09 35.61C26.26 36.52 28.39 37.21 30.39 37.66C30.27 37.96 30.15 38.26 30.01 38.56C29.18 40.39 28.21 41.84 27.19 42.8C26.17 43.75 25.14 44.21 24.09 44.21C23.04 44.21 22.01 43.75 20.98 42.8C19.96 41.84 18.99 40.39 18.16 38.56C18.03 38.26 17.9 37.96 17.78 37.66C19.79 37.21 21.91 36.52 24.09 35.61L24.09 35.61Z" fill="#2B7FFF" fill-opacity="1.000000" fill-rule="nonzero"/>
	</g>
</svg>
