<svg width="48.000000" height="48.000000" viewBox="0 0 48 48" fill="none" xmlns="http://www.w3.org/2000/svg" xmlns:xlink="http://www.w3.org/1999/xlink">
	<desc>
			Created with Pixso.
	</desc>
	<defs>
		<clipPath id="clip64_226">
			<rect id="ph:crown-light" width="48.000000" height="48.000000" fill="white" fill-opacity="0"/>
		</clipPath>
	</defs>
	<rect id="ph:crown-light" width="48.000000" height="48.000000" fill="#FFFFFF" fill-opacity="0"/>
	<g clip-path="url(#clip64_226)">
		<path id="Vector" d="M44.53 15.48C44.15 15.14 43.69 14.92 43.2 14.85C42.71 14.77 42.22 14.85 41.77 15.07L32.3 19.69C32.26 19.72 32.21 19.73 32.17 19.74C32.12 19.74 32.07 19.74 32.03 19.72C31.98 19.71 31.94 19.68 31.9 19.65C31.87 19.61 31.84 19.57 31.81 19.53L26.28 8.6C26.06 8.14 25.73 7.77 25.32 7.5C24.92 7.24 24.46 7.1 24 7.1C23.53 7.1 23.07 7.24 22.66 7.5C22.26 7.77 21.93 8.14 21.71 8.6L16.18 19.53C16.15 19.57 16.12 19.61 16.09 19.65C16.05 19.68 16.01 19.71 15.96 19.72C15.92 19.74 15.87 19.74 15.82 19.74C15.78 19.73 15.73 19.72 15.69 19.69L6.22 15.07C5.77 14.85 5.28 14.77 4.79 14.84C4.3 14.91 3.84 15.13 3.47 15.47C3.09 15.82 2.8 16.27 2.65 16.78C2.49 17.3 2.47 17.85 2.58 18.37L7.36 40.71C7.44 41.09 7.59 41.44 7.8 41.75C8.01 42.07 8.28 42.33 8.58 42.52C8.98 42.79 9.44 42.94 9.91 42.94C10.15 42.93 10.39 42.9 10.63 42.83C19.37 40.17 28.6 40.17 37.34 42.81C37.69 42.92 38.04 42.95 38.4 42.9C38.75 42.86 39.09 42.73 39.39 42.53C39.7 42.34 39.97 42.07 40.18 41.76C40.39 41.45 40.54 41.09 40.63 40.71L45.39 18.37C45.51 17.85 45.49 17.3 45.34 16.79C45.18 16.28 44.9 15.83 44.53 15.48ZM43.21 17.79L38.43 40.13C38.41 40.24 38.35 40.33 38.26 40.4C38.17 40.45 38.06 40.46 37.96 40.44C28.82 37.66 19.17 37.66 10.03 40.44C9.98 40.46 9.93 40.46 9.87 40.45C9.82 40.45 9.77 40.43 9.73 40.4C9.69 40.37 9.65 40.33 9.62 40.28C9.59 40.24 9.57 40.19 9.56 40.13L4.78 17.79C4.77 17.73 4.77 17.67 4.78 17.61C4.79 17.55 4.82 17.49 4.86 17.44C4.89 17.39 4.94 17.35 4.99 17.32C5.04 17.3 5.09 17.28 5.15 17.28L5.3 17.32L14.79 21.96C15.39 22.26 16.06 22.29 16.69 22.06C17.31 21.84 17.83 21.36 18.14 20.72L23.68 9.79C23.71 9.73 23.75 9.67 23.81 9.63C23.86 9.6 23.93 9.58 24 9.58C24.06 9.58 24.13 9.6 24.18 9.63C24.24 9.67 24.28 9.73 24.31 9.79L29.84 20.72C30.16 21.36 30.68 21.84 31.3 22.06C31.92 22.29 32.6 22.26 33.2 21.96L42.69 17.32C42.75 17.29 42.82 17.28 42.89 17.29C42.96 17.3 43.03 17.33 43.08 17.38C43.14 17.43 43.18 17.49 43.2 17.57C43.23 17.64 43.23 17.72 43.21 17.79ZM31.12 33.47C31.09 33.77 30.96 34.06 30.75 34.26C30.54 34.47 30.27 34.58 30 34.58L29.88 34.58C25.97 34.15 22.02 34.15 18.11 34.58C17.81 34.62 17.52 34.52 17.28 34.32C17.05 34.11 16.9 33.82 16.87 33.49C16.84 33.16 16.93 32.84 17.12 32.58C17.31 32.33 17.59 32.17 17.88 32.13C21.95 31.65 26.04 31.65 30.11 32.13C30.4 32.17 30.67 32.33 30.86 32.58C31.05 32.82 31.14 33.15 31.12 33.47Z" fill="#2B7FFF" fill-opacity="1.000000" fill-rule="nonzero"/>
	</g>
</svg>
