<svg width="48.000000" height="48.000000" viewBox="0 0 48 48" fill="none" xmlns="http://www.w3.org/2000/svg" xmlns:xlink="http://www.w3.org/1999/xlink">
	<desc>
			Created with Pixso.
	</desc>
	<defs>
		<clipPath id="clip64_171">
			<rect id="medicinecosmeticsbottletreatment_109776 1" width="48.000000" height="48.000000" transform="translate(0.000000 -0.500000)" fill="white" fill-opacity="0"/>
		</clipPath>
	</defs>
	<rect id="medicinecosmeticsbottletreatment_109776 1" width="48.000000" height="48.000000" transform="translate(0.000000 -0.500000)" fill="#FFFFFF" fill-opacity="0"/>
	<g clip-path="url(#clip64_171)">
		<path id="Vector" d="M13.1 17.57L-0.19 17.57C-0.6 17.57 -0.93 17.88 -0.93 18.28L-0.93 22.53C-0.93 22.92 -0.6 23.24 -0.19 23.24L0.55 23.24L0.55 39.53C0.55 39.92 0.88 40.24 1.29 40.24L11.63 40.24C12.03 40.24 12.36 39.92 12.36 39.53L12.36 36.7L12.36 26.07L12.36 23.24L13.1 23.24C13.51 23.24 13.84 22.92 13.84 22.53L13.84 18.28C13.84 17.88 13.51 17.57 13.1 17.57ZM4.98 31.03L4.98 29.61L9.41 29.61L9.41 28.2L4.98 28.2L4.98 26.78L10.89 26.78L10.89 35.99L4.98 35.99L4.98 32.45L6.46 32.45L6.46 31.03L4.98 31.03ZM10.89 25.36L4.24 25.36C3.83 25.36 3.5 25.68 3.5 26.07L3.5 36.7C3.5 37.09 3.83 37.41 4.24 37.41L10.89 37.41L10.89 38.82L2.03 38.82L2.03 23.24L10.89 23.24L10.89 25.36ZM12.36 21.82L11.63 21.82L1.29 21.82L0.55 21.82L0.55 18.98L12.36 18.98L12.36 21.82Z" fill="#2B7FFF" fill-opacity="1.000000" fill-rule="nonzero"/>
		<path id="Vector" d="M22.89 17.7L22.89 12.52C22.89 12.12 22.56 11.79 22.15 11.79L21.41 11.79L21.41 8.14L22.89 8.14L22.89 6.69L14.76 6.69L14.76 8.14L19.93 8.14L19.93 11.79L19.19 11.79C18.79 11.79 18.46 12.12 18.46 12.52L18.46 17.7C16.77 18.04 15.5 19.51 15.5 21.27L15.5 22.73L15.5 36.59L15.5 39.51C15.5 39.91 15.83 40.24 16.24 40.24L25.1 40.24C25.51 40.24 25.84 39.91 25.84 39.51L25.84 36.59L25.84 22.73L25.84 21.27C25.84 19.51 24.57 18.04 22.89 17.7ZM19.93 13.25L21.41 13.25L21.41 17.63L19.93 17.63L19.93 13.25ZM19.19 19.09L22.15 19.09C23.37 19.09 24.36 20.07 24.36 21.27L24.36 22L16.98 22L16.98 21.27C16.98 20.07 17.97 19.09 19.19 19.09ZM24.36 35.86L16.98 35.86L16.98 34.4L19.93 34.4L19.93 32.95L16.98 32.95L16.98 23.46L24.36 23.46L24.36 35.86ZM16.98 38.78L16.98 37.32L24.36 37.32L24.36 38.78L16.98 38.78Z" fill="#2B7FFF" fill-opacity="1.000000" fill-rule="nonzero"/>
		<path id="Vector" d="M41.76 16.66L29.3 16.66C28.92 16.66 28.61 16.98 28.61 17.38L28.61 39.53C28.61 39.92 28.92 40.24 29.3 40.24L41.76 40.24C42.15 40.24 42.46 39.92 42.46 39.53L42.46 17.38C42.46 16.98 42.15 16.66 41.76 16.66ZM41.07 38.81L30 38.81L30 18.09L41.07 18.09L41.07 38.81Z" fill="#2B7FFF" fill-opacity="1.000000" fill-rule="nonzero"/>
		<path id="Vector" d="M8.3 31.17L10.15 31.17L10.15 32.08L8.3 32.08L8.3 31.17Z" fill="#2B7FFF" fill-opacity="1.000000" fill-rule="evenodd"/>
		<path id="Vector" d="M21.23 32.98L23.07 32.98L23.07 34.8L21.23 34.8L21.23 32.98Z" fill="#2B7FFF" fill-opacity="1.000000" fill-rule="evenodd"/>
		<path id="Vector" d="M20.76 31.17C22.55 31.17 24 29.75 24 28C24 26.25 22.55 24.82 20.76 24.82C18.98 24.82 17.53 26.25 17.53 28C17.53 29.75 18.98 31.17 20.76 31.17ZM20.76 26.41C21.66 26.41 22.38 27.12 22.38 28C22.38 28.87 21.66 29.58 20.76 29.58C19.87 29.58 19.15 28.87 19.15 28C19.15 27.12 19.87 26.41 20.76 26.41Z" fill="#2B7FFF" fill-opacity="1.000000" fill-rule="nonzero"/>
		<path id="Vector" d="M33.8 23.92L37.26 23.92C38.6 23.92 39.69 22.9 39.69 21.65C39.69 20.4 38.6 19.38 37.26 19.38L33.8 19.38C32.47 19.38 31.38 20.4 31.38 21.65C31.38 22.9 32.47 23.92 33.8 23.92ZM38.3 21.65C38.3 22.18 37.84 22.62 37.26 22.62L36.23 22.62L36.23 20.68L37.26 20.68C37.84 20.68 38.3 21.11 38.3 21.65ZM33.8 20.68L34.84 20.68L34.84 22.62L33.8 22.62C33.23 22.62 32.76 22.18 32.76 21.65C32.76 21.11 33.23 20.68 33.8 20.68Z" fill="#2B7FFF" fill-opacity="1.000000" fill-rule="nonzero"/>
		<path id="Vector" d="M33.8 31.17L37.26 31.17C38.6 31.17 39.69 29.95 39.69 28.45C39.69 26.95 38.6 25.73 37.26 25.73L33.8 25.73C32.47 25.73 31.38 26.95 31.38 28.45C31.38 29.95 32.47 31.17 33.8 31.17ZM38.3 28.45C38.3 29.09 37.84 29.62 37.26 29.62L36.23 29.62L36.23 27.28L37.26 27.28C37.84 27.28 38.3 27.81 38.3 28.45ZM33.8 27.28L34.84 27.28L34.84 29.62L33.8 29.62C33.23 29.62 32.76 29.09 32.76 28.45C32.76 27.81 33.23 27.28 33.8 27.28Z" fill="#2B7FFF" fill-opacity="1.000000" fill-rule="nonzero"/>
		<path id="Vector" d="M33.8 37.52L37.26 37.52C38.6 37.52 39.69 36.3 39.69 34.8C39.69 33.3 38.6 32.08 37.26 32.08L33.8 32.08C32.47 32.08 31.38 33.3 31.38 34.8C31.38 36.3 32.47 37.52 33.8 37.52ZM38.3 34.8C38.3 35.44 37.84 35.96 37.26 35.96L36.23 35.96L36.23 33.63L37.26 33.63C37.84 33.63 38.3 34.16 38.3 34.8ZM33.8 33.63L34.84 33.63L34.84 35.96L33.8 35.96C33.23 35.96 32.76 35.44 32.76 34.8C32.76 34.16 33.23 33.63 33.8 33.63Z" fill="#2B7FFF" fill-opacity="1.000000" fill-rule="nonzero"/>
	</g>
</svg>
